<svg version="1.1" id="Layer_1" xmlns="http://www.w3.org/2000/svg" x="0" y="0" viewBox="0 0 40 7.8" xml:space="preserve"><style>.st0{fill:#f16422}</style><path class="st0" d="M19.5 2.9c-.7.1-1.3.5-1.3 1.3-.1.7.2 1.3.9 1.5.2.1.4.1.6.2.1.1.2.1.3.2.2.2.1.5-.1.5h-.3c-.3 0-.6-.1-.8-.1-.2 0-.4-.1-.7-.2 0 .4 0 .8.2 1.1l.1.1c.6.2 1.3.3 1.9.1.4-.1.8-.3 1-.7.2-.4.2-.8.2-1.2-.1-.5-.3-.8-.7-1-.2-.1-.4-.1-.6-.2-.2-.1-.3-.1-.5-.2-.1-.1-.2-.2-.2-.3h.4s.2 0 .7.1c.3.1.5.2.8.2 0-.4 0-.7-.2-1.1l-.1-.1c-.3-.2-.7-.2-1.1-.2-.2-.1-.3-.1-.5 0m-8.8 0c-.7.2-1.2.6-1.5 1.3-.3.7-.3 1.3-.1 2 .1.6.4 1 1 1.3.8.4 1.5.4 2.3.1 0 0 .1 0 .1-.1.2-.3.3-.6.3-.9v-.2h-.1c-.4.1-.8.2-1.2.1-.5 0-.9-.4-1-.9v-.7c.1-.6.4-1 1-1 .4-.1.8 0 1.2.2 0-.3 0-.8-.2-1.1h-.2c-.3-.1-.6-.1-.9-.1-.2-.1-.4 0-.7 0M4.2.2c.2.4.1.9-.3 1.2-2.3.5-3.6 3.8-.6 6.3v-.1c0-.1 0-.1-.1-.2-.1-.6-.2-.9-.2-2 0-1.5.8-2.4 2.3-2.7h.1c.4-.1.7-.4 1-.7 0-.1 0-.2-.1-.3C5.9.7 5.1.2 4.2.2"/><path d="M6.6.3c.1.2.1.5.1.7 0 .3-.1.7-.4 1-.3.3-.6.6-1 .7h-.1C3.8 3 3 3.9 3 5.4c0 1.1.1 1.3.3 2 0 .1 0 .1.1.2v.1c-3-2.4-1.7-5.8.6-6.3.4-.2.6-.7.3-1.2 0 .5-.4.9-.8.9-2 0-3.5 1.5-3.5 3.3 0 1.9 1.5 3.4 3.4 3.4h4v-.3c0-.6-.5-1.1-1.1-1.1.2-.3.3-.6.3-.9v-.1H7c.3 0 .6-.1.8-.3.2-.3.4-.6.4-.9v-.3h-.8l.2-.4c.5-.1.9-.3 1.3-.7H9v-.2C9 1.7 8.3.9 7.4.7c0-.2-.1-.5-.2-.7l-.6.3z" fill="#f8a046"/><path class="st0" d="M25.6 2.8c-.2 0-.4 0-.6.1-.1 0-.1.1-.1.2v1.7h-1.5V3.1c0-.1 0-.1-.1-.2-.2 0-.4-.1-.6-.1-.2 0-.4 0-.6.1 0 0-.1.1-.1.2v4.5c0 .1 0 .1.1.2.2 0 .4.1.6.1.2 0 .4 0 .6-.1.1 0 .1-.1.1-.2V5.9h1.5v1.7c0 .1 0 .1.1.2.2 0 .4.1.6.1.2 0 .4 0 .6-.1.1 0 .1-.1.1-.2V3.1c0-.1 0-.1-.1-.2-.3-.1-.4-.1-.6-.1M15.2 5c.1-.3.1-.6.2-.9V4l.1-.1.1.1v.1c.1.3.1.6.2.9 0 .1.1.4.2.8h-1c.1-.4.1-.7.2-.8m-.7-2.1c-.1 0-.1 0-.1.1-.5 1.5-.9 3.1-1.4 4.6 0 .1 0 .1.1.1.4.1.8.1 1.3 0l.1-.1c0-.1.1-.3.2-.7h1.5c.1.3.2.6.2.7l.1.1c.4.1.8.1 1.3 0 .1 0 .1-.1.1-.1-.5-1.5-.9-3.1-1.4-4.6 0-.1 0-.1-.1-.1-.3 0-.6-.1-.9-.1-.4 0-.7.1-1 .1"/><path d="M35.3 4c-.3-.6-.7-.9-1.3-1.1-.2-.1-.5-.1-.7-.1-.2 0-.5 0-.7.1-.6.2-1 .5-1.3 1.1-.2.4-.3.9-.3 1.3s0 .7.1 1.1c.2.6.5 1 1.1 1.3.3.1.7.2 1.1.2.4 0 .7-.1 1.1-.2.6-.2.9-.7 1.1-1.3.1-.3.1-.7.1-1.1 0-.4-.1-.9-.3-1.3M34 6.1c-.1.3-.4.5-.7.5-.3 0-.6-.2-.7-.5-.2-.5-.2-1.1 0-1.6.1-.3.3-.5.7-.5.4 0 .6.2.7.5.2.6.2 1.1 0 1.6m-3.1-3c0-.1 0-.1-.1-.2-.2 0-.4-.1-.6-.1-.2 0-.4 0-.6.1 0 0-.1 0-.1.1-.2.5-.5 1.2-.6 1.7 0 .1 0 .1-.1.2 0 0 0 .1-.1.2 0 0 0-.1-.1-.2 0-.1 0-.1-.1-.2-.1-.6-.4-1.2-.6-1.7 0 0 0-.1-.1-.1-.2 0-.4-.1-.6-.1-.2 0-.4 0-.6.1-.1 0-.1.1-.1.2v.1c.5 1.1.8 1.8 1.2 2.9 0 .1.1.3.1.4v1.2c0 .1 0 .1.1.2.2 0 .4.1.6.1.2 0 .4 0 .6-.1.1 0 .1-.1.1-.2V6.4c0-.1.1-.3.1-.4.8-1.1 1.1-1.8 1.6-2.9m9.1 0c0-.1 0-.1-.1-.2-.2 0-.4-.1-.6-.1-.2 0-.4 0-.6.1-.1 0-.1.1-.1.2v3c-.1.4-.2.6-.6.6-.4 0-.6-.2-.6-.6v-3c0-.1 0-.1-.1-.2-.2 0-.4-.1-.6-.1-.2 0-.4 0-.6.1-.1 0-.1.1-.1.2v3c0 .4.1.9.5 1.2.2.3.6.4.9.5.2.1.5.1.7.1.2 0 .5 0 .7-.1.3-.1.7-.3.9-.5.2-.4.3-.8.3-1.3V3.1z" fill="#454545"/></svg>